<svg xmlns="http://www.w3.org/2000/svg" width="24" height="24" fill="none" viewBox="0 0 24 24"><g id="menu-03"><g id="Solid"><path fill="#fff" fill-rule="evenodd" d="M22 12C22 11.4477 21.5523 11 21 11H3C2.44772 11 2 11.4477 2 12C2 12.5523 2.44772 13 3 13H21C21.5523 13 22 12.5523 22 12Z" clip-rule="evenodd"/><path fill="#fff" fill-rule="evenodd" d="M22 6C22 5.44772 21.5523 5 21 5H3C2.44772 5 2 5.44772 2 6C2 6.55228 2.44772 7 3 7H21C21.5523 7 22 6.55228 22 6Z" clip-rule="evenodd"/><path fill="#fff" fill-rule="evenodd" d="M22 18C22 17.4477 21.5523 17 21 17H9C8.44771 17 8 17.4477 8 18C8 18.5523 8.44771 19 9 19H21C21.5523 19 22 18.5523 22 18Z" clip-rule="evenodd"/></g></g></svg>